<svg id="svg" xmlns="http://www.w3.org/2000/svg" xmlns:xlink="http://www.w3.org/1999/xlink" width="400" height="144.530844997408" viewBox="0, 0, 400,144.530844997408"><g id="svgg"><path id="path0" d="M106.778 41.984 C 104.444 42.323,100.123 43.353,99.786 43.650 C 99.395 43.996,99.109 48.110,98.978 55.295 L 98.864 61.549 98.214 61.668 C 97.856 61.734,94.921 62.161,91.691 62.617 C 88.461 63.073,85.735 63.497,85.634 63.560 C 85.532 63.623,84.302 63.861,82.901 64.089 C 81.499 64.318,78.043 64.967,75.220 65.533 C 72.397 66.099,69.178 66.703,68.066 66.876 C 66.954 67.048,65.251 67.372,64.282 67.596 C 62.218 68.073,52.584 69.827,50.528 70.100 C 49.750 70.203,48.770 70.379,48.351 70.490 C 47.932 70.601,46.190 70.967,44.479 71.303 C 39.875 72.206,37.325 73.173,37.325 74.016 C 37.325 74.623,39.746 76.672,41.369 77.440 C 44.348 78.849,48.769 79.850,56.921 80.959 C 58.289 81.146,60.062 81.390,60.861 81.502 C 64.188 81.968,70.743 82.719,72.576 82.844 C 73.660 82.918,76.249 83.251,78.329 83.584 C 80.410 83.916,82.556 84.192,83.099 84.196 C 83.641 84.201,84.738 84.343,85.537 84.513 C 88.502 85.144,96.858 86.251,98.733 86.262 C 98.885 86.262,99.109 88.912,99.102 90.617 C 99.100 91.244,98.774 93.404,98.379 95.416 C 97.984 97.429,97.523 100.182,97.356 101.534 C 97.189 102.886,96.992 104.390,96.917 104.878 C 96.779 105.784,97.178 106.584,97.770 106.584 C 98.039 106.584,98.380 104.876,98.703 101.900 C 98.816 100.863,99.097 99.137,99.328 98.064 C 99.869 95.554,99.858 95.617,100.178 93.383 L 100.449 91.484 101.570 92.508 C 102.187 93.071,103.124 93.824,103.652 94.179 C 104.181 94.535,104.800 94.991,105.029 95.193 C 106.926 96.870,112.411 98.791,118.611 99.951 C 126.966 101.514,145.703 99.812,149.999 97.100 L 150.835 96.572 151.153 97.068 C 151.669 97.874,153.906 100.156,154.181 100.156 C 154.320 100.156,154.548 100.294,154.688 100.462 C 154.828 100.631,155.189 100.894,155.491 101.046 C 155.793 101.199,156.226 101.429,156.454 101.559 C 157.761 102.301,162.485 103.888,163.387 103.888 C 163.695 103.888,164.641 104.079,165.488 104.312 C 169.405 105.389,176.636 105.655,180.197 104.853 C 182.948 104.233,185.996 103.080,187.309 102.164 L 188.595 101.265 188.657 99.983 L 188.719 98.700 187.620 97.536 C 186.182 96.013,182.610 93.738,181.643 93.730 C 181.469 93.729,181.142 93.604,180.917 93.452 C 180.692 93.301,179.948 93.017,179.264 92.820 C 178.580 92.623,177.551 92.281,176.979 92.058 C 176.406 91.836,175.795 91.654,175.621 91.654 C 175.446 91.654,175.215 91.571,175.106 91.471 C 174.998 91.370,174.303 91.129,173.561 90.936 C 172.820 90.742,171.887 90.492,171.488 90.380 C 171.089 90.267,170.482 90.098,170.140 90.003 C 169.788 89.905,169.683 89.821,169.897 89.809 C 170.105 89.797,171.365 89.698,172.696 89.589 C 174.027 89.479,177.263 89.290,179.886 89.168 C 182.509 89.046,185.181 88.894,185.823 88.831 L 186.990 88.716 187.087 89.407 C 187.210 90.291,187.776 93.195,188.393 96.112 C 188.658 97.367,189.021 99.139,189.200 100.052 C 189.378 100.964,189.655 102.317,189.815 103.059 C 189.976 103.800,190.173 105.028,190.254 105.789 C 190.574 108.776,191.792 108.941,192.867 106.143 C 193.277 105.074,194.011 103.173,194.496 101.918 C 194.982 100.664,195.866 97.678,196.461 95.283 L 197.543 90.928 197.966 92.068 C 198.199 92.696,198.507 93.722,198.651 94.349 C 198.794 94.977,199.123 96.143,199.381 96.941 C 199.639 97.740,199.914 98.696,199.993 99.066 C 200.412 101.035,202.934 104.717,203.864 104.717 C 204.086 104.717,204.630 104.532,205.074 104.306 C 206.310 103.675,209.263 102.880,212.023 102.435 C 216.388 101.731,218.485 101.223,222.084 100.003 C 224.462 99.196,225.321 98.855,225.609 98.606 C 225.780 98.457,226.527 98.034,227.268 97.666 C 228.512 97.047,231.163 95.106,231.784 94.358 C 233.432 92.372,235.063 89.308,235.818 86.781 L 236.314 85.122 237.752 84.992 C 242.919 84.526,259.635 84.933,261.411 85.567 C 261.690 85.667,261.633 85.531,261.199 85.065 C 260.065 83.846,255.958 83.478,245.005 83.612 L 236.356 83.718 236.521 82.969 C 236.799 81.708,236.735 75.278,236.434 74.235 C 233.993 65.768,229.896 60.776,222.084 56.748 C 221.229 56.307,220.342 55.830,220.114 55.689 C 219.886 55.547,219.432 55.365,219.106 55.285 C 218.780 55.205,218.127 54.965,217.655 54.752 C 217.183 54.540,216.423 54.303,215.967 54.226 C 215.511 54.150,214.857 53.968,214.515 53.822 C 214.173 53.676,213.240 53.399,212.442 53.206 C 207.350 51.978,201.631 51.077,196.065 50.626 L 194.411 50.492 193.818 48.834 C 193.492 47.921,193.067 46.550,192.874 45.786 C 192.536 44.448,191.743 43.227,191.364 43.461 C 191.154 43.591,191.159 47.497,191.371 49.199 L 191.521 50.395 185.403 50.340 L 179.285 50.285 179.022 48.937 C 178.878 48.196,178.701 46.796,178.629 45.827 C 178.444 43.343,177.295 41.985,177.032 43.942 C 176.972 44.393,176.676 45.258,176.376 45.865 C 174.226 50.202,172.985 50.990,168.274 51.011 C 167.247 51.015,165.474 51.154,164.334 51.319 C 163.193 51.485,161.747 51.623,161.120 51.627 C 159.817 51.635,145.016 53.533,142.665 53.993 C 139.376 54.637,139.534 54.659,138.828 53.465 C 138.025 52.104,134.819 48.830,133.264 47.782 C 130.699 46.054,128.886 44.997,128.489 44.997 C 128.330 44.997,128.084 44.857,127.942 44.686 C 127.800 44.515,127.596 44.375,127.489 44.375 C 127.381 44.375,126.789 44.144,126.172 43.862 C 125.555 43.580,124.791 43.289,124.474 43.215 C 124.157 43.141,123.360 42.903,122.701 42.687 C 119.546 41.651,111.502 41.296,106.778 41.984 M122.240 43.522 C 125.017 44.307,126.527 44.827,128.046 45.522 C 128.844 45.887,129.637 46.244,129.808 46.316 C 130.165 46.465,130.249 46.518,132.913 48.255 C 135.525 49.957,136.786 51.240,138.225 53.656 C 138.861 54.725,139.366 54.535,133.437 55.461 C 130.814 55.871,128.061 56.344,127.320 56.511 C 126.579 56.678,125.046 56.956,123.913 57.127 C 121.964 57.423,119.091 57.974,110.731 59.659 C 106.993 60.412,100.575 61.391,100.326 61.247 C 99.936 61.021,100.266 48.976,100.753 45.632 L 100.887 44.711 103.165 44.132 C 108.421 42.797,118.529 42.474,122.240 43.522 M178.065 50.303 C 178.040 50.324,177.397 50.379,176.637 50.425 L 175.253 50.510 175.642 49.964 C 175.856 49.664,176.175 49.299,176.351 49.153 C 176.528 49.006,176.672 48.801,176.672 48.696 C 176.672 48.591,176.882 48.222,177.138 47.875 L 177.604 47.245 177.857 48.755 C 177.996 49.585,178.089 50.282,178.065 50.303 M193.136 49.628 C 193.296 50.160,193.367 50.595,193.292 50.593 C 193.110 50.589,192.499 50.189,192.669 50.185 C 192.742 50.183,192.730 49.860,192.641 49.466 C 192.552 49.073,192.531 48.699,192.594 48.637 C 192.763 48.468,192.817 48.566,193.136 49.628 M178.936 53.862 C 179.189 55.088,179.481 56.418,179.584 56.817 C 179.688 57.216,179.957 58.336,180.182 59.305 C 181.063 63.098,181.278 63.957,181.477 64.473 C 181.591 64.767,181.862 65.988,182.080 67.185 C 182.298 68.383,182.570 69.782,182.685 70.295 C 182.800 70.809,182.987 71.695,183.100 72.265 C 183.214 72.836,183.400 73.722,183.515 74.235 C 183.629 74.749,183.810 75.635,183.916 76.205 C 184.023 76.776,184.199 77.522,184.308 77.864 C 184.417 78.206,184.615 79.046,184.748 79.730 C 184.881 80.415,185.159 81.581,185.367 82.322 C 185.575 83.064,185.858 84.230,185.996 84.914 C 186.134 85.599,186.372 86.509,186.523 86.936 L 186.799 87.714 185.624 87.732 C 184.977 87.742,183.002 87.827,181.234 87.921 C 170.697 88.480,164.767 88.722,164.572 88.602 C 164.449 88.526,163.972 88.396,163.512 88.312 C 163.052 88.228,162.302 88.054,161.846 87.925 C 161.389 87.796,160.316 87.514,159.461 87.299 C 158.605 87.084,157.532 86.804,157.076 86.677 C 156.620 86.550,155.889 86.356,155.451 86.245 C 153.812 85.832,153.088 85.287,152.012 83.655 C 150.994 82.111,150.987 82.088,151.539 82.198 C 152.031 82.296,157.166 83.134,163.204 84.102 C 164.293 84.276,165.739 84.391,166.418 84.356 L 167.652 84.292 168.087 83.020 C 168.502 81.808,168.686 81.008,168.909 79.449 C 168.964 79.066,169.097 78.588,169.204 78.387 C 169.312 78.187,169.359 77.981,169.308 77.931 C 169.258 77.881,169.320 77.239,169.445 76.504 C 169.712 74.943,169.823 69.391,169.602 68.637 C 169.518 68.351,169.244 67.232,168.992 66.148 C 168.464 63.874,167.425 61.749,166.148 60.328 L 165.258 59.339 166.605 58.196 C 167.346 57.568,169.222 55.904,170.774 54.499 C 173.876 51.691,173.850 51.704,176.692 51.660 L 178.475 51.633 178.936 53.862 M191.602 52.315 C 191.602 53.967,192.247 62.821,192.433 63.722 C 192.546 64.269,192.639 65.156,192.640 65.692 C 192.642 67.108,195.090 81.552,195.419 82.083 C 195.727 82.582,196.533 87.073,196.319 87.098 C 196.291 87.101,194.635 87.189,192.639 87.294 C 190.643 87.398,188.729 87.543,188.386 87.615 L 187.762 87.746 187.383 86.226 C 187.174 85.391,186.874 84.241,186.715 83.670 C 186.209 81.852,185.093 76.740,183.817 70.399 C 183.165 67.159,182.751 65.391,182.265 63.764 C 182.108 63.238,180.665 56.802,180.009 53.707 C 179.901 53.193,179.757 52.517,179.689 52.203 L 179.567 51.633 185.584 51.633 L 191.602 51.633 191.602 52.315 M194.038 53.174 C 194.295 54.019,194.505 54.887,194.505 55.104 C 194.505 55.444,194.986 57.350,196.248 62.001 C 197.390 66.210,197.706 68.792,197.787 74.546 C 197.864 80.025,197.566 85.056,197.187 84.670 C 196.748 84.223,194.247 70.604,194.014 67.392 C 193.961 66.651,193.811 65.158,193.681 64.075 C 193.552 62.991,193.410 61.405,193.365 60.550 C 193.321 59.694,193.228 58.015,193.159 56.817 C 192.877 51.919,192.881 51.633,193.240 51.635 C 193.472 51.636,193.712 52.099,194.038 53.174 M200.000 52.058 C 204.264 52.490,213.077 54.087,214.930 54.763 C 215.272 54.888,216.065 55.113,216.693 55.263 C 221.967 56.526,228.969 60.967,231.342 64.557 C 234.571 69.440,235.459 72.632,235.290 78.745 C 235.143 84.100,235.195 83.923,233.727 84.042 C 233.083 84.094,231.343 84.241,229.860 84.369 C 228.377 84.497,225.718 84.693,223.950 84.805 C 220.467 85.025,217.156 85.298,213.893 85.635 C 208.133 86.230,203.067 86.665,200.859 86.754 L 198.399 86.853 198.546 86.195 C 199.046 83.945,199.212 81.331,199.179 76.207 C 199.145 70.684,198.900 68.668,197.685 63.867 C 197.411 62.784,196.912 60.778,196.576 59.409 C 196.241 58.040,195.814 56.314,195.627 55.573 C 195.441 54.832,195.218 53.898,195.131 53.499 C 195.045 53.100,194.904 52.512,194.818 52.192 L 194.662 51.611 196.294 51.729 C 197.192 51.794,198.860 51.942,200.000 52.058 M169.518 53.427 C 168.720 54.175,167.158 55.578,166.049 56.546 L 164.031 58.305 161.798 58.349 L 159.565 58.393 157.180 59.568 C 155.868 60.215,153.302 61.678,151.477 62.819 C 149.653 63.960,147.460 65.324,146.604 65.848 C 142.158 68.576,139.461 71.447,139.192 73.739 L 139.092 74.590 137.612 73.966 C 136.799 73.623,135.853 73.269,135.511 73.178 C 135.168 73.088,134.049 72.767,133.022 72.465 C 131.996 72.163,130.736 71.836,130.223 71.740 C 128.439 71.403,127.738 71.171,128.432 71.146 C 129.452 71.110,132.495 70.303,135.303 69.325 C 139.351 67.915,139.706 67.708,140.648 66.200 L 141.458 64.904 141.437 62.740 C 141.413 60.347,140.957 57.310,140.483 56.394 C 140.069 55.594,140.026 55.639,141.369 55.475 C 142.024 55.396,143.167 55.205,143.909 55.051 C 145.471 54.727,158.914 53.024,162.882 52.647 C 164.365 52.506,166.185 52.328,166.926 52.252 C 167.667 52.175,168.880 52.103,169.622 52.090 L 170.969 52.067 169.518 53.427 M139.561 56.637 C 140.891 61.574,140.123 65.884,137.735 66.885 C 132.476 69.090,125.539 70.669,122.758 70.293 C 118.454 69.712,116.771 69.631,111.146 69.736 C 102.932 69.888,101.269 70.391,102.989 72.203 L 103.577 72.822 109.072 72.689 C 112.094 72.615,117.081 72.366,120.153 72.135 C 124.597 71.801,125.933 71.764,126.685 71.953 C 127.763 72.224,128.635 72.421,130.845 72.891 C 136.465 74.087,139.075 75.131,139.647 76.413 C 139.901 76.983,140.264 77.578,140.454 77.734 C 140.643 77.891,140.798 78.119,140.798 78.241 C 140.798 78.363,141.055 78.736,141.369 79.070 C 141.857 79.589,141.879 79.660,141.524 79.566 C 141.001 79.428,138.763 79.123,134.266 78.578 C 132.328 78.344,129.202 77.958,127.320 77.721 C 118.406 76.599,110.471 77.243,104.095 79.607 C 103.277 79.910,102.650 80.353,101.875 81.176 C 101.281 81.807,100.764 82.322,100.726 82.322 C 100.687 82.322,100.638 81.366,100.617 80.197 C 100.595 79.028,100.526 77.278,100.463 76.309 C 100.400 75.340,100.314 71.904,100.273 68.674 C 100.186 61.750,99.656 62.626,104.303 62.010 C 106.071 61.775,111.024 60.892,115.311 60.046 C 119.597 59.200,123.890 58.400,124.849 58.268 C 125.809 58.136,126.893 57.936,127.258 57.824 C 127.888 57.631,138.225 55.847,138.976 55.802 C 139.224 55.787,139.401 56.039,139.561 56.637 M161.379 61.188 C 160.611 62.110,159.533 63.524,158.985 64.331 C 158.436 65.138,157.802 66.041,157.576 66.336 C 155.422 69.155,151.339 76.035,150.671 77.972 C 150.455 78.597,150.199 79.197,150.101 79.305 C 150.003 79.414,149.922 79.748,149.922 80.048 C 149.922 80.893,149.740 80.907,148.705 80.142 C 148.177 79.752,147.363 79.150,146.895 78.804 C 146.428 78.458,145.967 78.175,145.872 78.175 C 145.776 78.175,145.505 77.998,145.270 77.781 C 144.724 77.278,143.308 76.450,141.784 75.742 C 140.486 75.139,140.211 74.715,140.630 73.956 C 140.780 73.684,141.153 72.996,141.461 72.427 C 142.235 70.993,144.665 68.885,147.538 67.156 C 148.336 66.675,149.176 66.127,149.404 65.938 C 149.632 65.750,150.285 65.332,150.855 65.011 C 151.426 64.689,152.359 64.132,152.929 63.771 C 157.723 60.742,160.213 59.565,161.896 59.531 L 162.775 59.513 161.379 61.188 M165.878 60.908 C 168.864 65.417,169.234 73.746,166.817 82.059 L 166.500 83.152 165.339 83.152 C 164.700 83.152,163.326 83.016,162.286 82.850 C 158.562 82.255,152.297 81.294,151.788 81.238 C 151.469 81.203,151.285 81.062,151.309 80.871 C 151.454 79.694,153.373 75.831,155.324 72.784 C 155.653 72.271,156.112 71.524,156.344 71.125 C 156.854 70.249,158.355 68.052,159.319 66.770 C 159.705 66.257,160.143 65.604,160.292 65.319 C 160.977 64.007,164.512 59.956,164.988 59.937 C 165.120 59.932,165.520 60.369,165.878 60.908 M98.989 68.999 C 99.060 72.392,99.176 77.479,99.247 80.304 C 99.356 84.609,99.331 85.423,99.092 85.340 C 98.936 85.285,97.173 85.095,95.175 84.918 C 91.282 84.574,86.441 83.908,85.623 83.604 C 85.347 83.502,84.189 83.309,83.048 83.177 C 81.908 83.044,79.668 82.743,78.072 82.508 C 76.475 82.272,73.693 81.949,71.891 81.791 C 69.086 81.543,65.992 81.171,60.757 80.451 C 60.130 80.365,59.103 80.234,58.476 80.161 C 50.028 79.172,43.623 77.856,41.027 76.577 C 40.498 76.315,39.979 76.102,39.874 76.102 C 39.769 76.102,39.410 75.814,39.075 75.463 L 38.466 74.825 38.931 74.446 C 39.712 73.810,43.030 72.856,47.175 72.074 C 49.342 71.666,51.866 71.190,52.785 71.017 C 53.703 70.843,56.736 70.287,59.524 69.781 C 62.312 69.274,65.619 68.662,66.874 68.420 C 68.129 68.178,72.001 67.431,75.480 66.760 C 78.958 66.089,82.691 65.396,83.774 65.220 C 84.857 65.044,86.123 64.801,86.585 64.679 C 87.290 64.494,97.471 62.940,98.523 62.857 C 98.824 62.833,98.873 63.480,98.989 68.999 M116.019 71.130 C 113.540 71.337,104.822 71.573,104.965 71.430 C 105.230 71.166,108.676 70.973,113.116 70.974 C 116.763 70.974,117.446 71.011,116.019 71.130 M142.568 76.851 C 143.413 77.263,144.212 77.729,144.343 77.888 C 144.474 78.046,144.703 78.175,144.851 78.175 C 145.000 78.175,145.398 78.409,145.737 78.694 C 146.076 78.979,146.433 79.213,146.531 79.214 C 146.628 79.215,147.118 79.542,147.619 79.940 C 148.696 80.797,148.343 80.905,146.220 80.367 C 145.576 80.204,144.512 80.007,143.856 79.929 C 142.593 79.778,141.508 78.826,140.842 77.284 C 140.243 75.899,140.489 75.837,142.568 76.851 M125.184 78.571 C 125.732 78.675,127.112 78.864,128.253 78.992 C 129.393 79.119,131.446 79.359,132.815 79.526 C 136.937 80.026,140.412 80.435,141.785 80.580 C 142.881 80.696,143.219 80.836,143.962 81.482 C 144.446 81.903,145.668 82.742,146.677 83.348 C 148.442 84.407,148.507 84.473,148.388 85.070 C 148.319 85.412,148.263 86.371,148.263 87.200 L 148.263 88.707 145.205 88.610 C 140.594 88.463,129.675 87.939,124.417 87.613 C 119.574 87.312,117.140 87.116,111.871 86.599 C 110.161 86.431,107.035 86.136,104.925 85.943 C 102.815 85.750,101.060 85.566,101.024 85.534 C 100.589 85.146,103.784 81.194,104.780 80.888 C 105.145 80.776,105.991 80.494,106.660 80.262 C 108.645 79.572,112.745 78.775,115.189 78.604 C 118.508 78.371,124.032 78.353,125.184 78.571 M146.708 81.480 C 149.502 81.958,149.284 81.862,149.094 82.527 C 148.694 83.921,148.704 83.920,146.812 82.778 C 146.413 82.537,145.806 82.194,145.464 82.015 C 145.122 81.837,144.609 81.509,144.323 81.287 L 143.805 80.883 144.531 81.058 C 144.930 81.154,145.910 81.344,146.708 81.480 M151.164 83.352 C 151.304 83.691,151.548 84.075,151.707 84.207 C 152.146 84.571,152.054 84.811,151.475 84.811 C 150.483 84.811,150.164 84.435,150.392 83.535 C 150.635 82.577,150.824 82.532,151.164 83.352 M151.435 85.640 C 152.666 86.185,153.240 87.013,153.240 88.245 L 153.240 88.767 151.426 88.707 L 149.611 88.647 149.629 87.610 C 149.652 86.294,149.898 84.972,150.105 85.057 C 150.192 85.093,150.791 85.355,151.435 85.640 M234.461 85.692 C 234.063 87.327,233.878 87.844,233.274 89.007 C 231.306 92.800,229.094 95.093,225.816 96.739 C 225.189 97.054,224.455 97.456,224.184 97.633 C 222.502 98.735,215.959 100.532,211.198 101.201 C 208.433 101.589,204.002 102.830,203.714 103.296 C 202.971 104.497,201.683 101.843,200.011 95.667 C 199.738 94.657,199.221 92.999,198.862 91.983 C 197.434 87.936,197.358 88.028,202.281 87.816 C 203.878 87.747,206.024 87.601,207.050 87.490 C 208.077 87.380,210.036 87.199,211.405 87.087 C 213.852 86.887,214.739 86.807,221.358 86.186 C 223.183 86.015,226.496 85.765,228.720 85.631 C 230.943 85.496,232.802 85.350,232.849 85.306 C 233.237 84.945,234.565 85.263,234.461 85.692 M108.761 87.313 C 112.411 87.656,116.376 88.030,117.574 88.142 C 119.944 88.366,127.258 88.841,133.333 89.166 C 135.443 89.278,138.896 89.464,141.007 89.579 C 143.117 89.694,145.603 89.787,146.531 89.787 C 148.460 89.787,148.335 89.665,148.778 91.980 C 148.933 92.787,149.253 93.793,149.491 94.215 C 150.064 95.237,150.081 95.195,148.822 95.948 C 143.023 99.416,122.248 100.415,112.755 97.682 C 107.918 96.290,103.921 94.186,101.487 91.752 L 100.619 90.884 100.623 88.832 C 100.628 86.407,100.604 86.471,101.455 86.593 C 101.824 86.646,105.111 86.970,108.761 87.313 M155.027 86.854 C 156.834 87.541,157.472 87.749,158.631 88.028 C 161.228 88.654,161.152 88.714,157.750 88.733 C 155.954 88.743,154.484 88.707,154.484 88.655 C 154.484 88.602,154.299 88.089,154.072 87.514 C 153.608 86.337,153.629 86.323,155.027 86.854 M196.483 88.699 C 196.406 88.898,196.262 89.482,196.163 89.995 C 195.610 92.863,194.137 98.295,193.344 100.386 C 192.842 101.710,192.431 102.862,192.431 102.946 C 192.431 103.031,192.301 103.394,192.142 103.753 C 191.984 104.112,191.791 104.593,191.714 104.821 C 191.536 105.348,191.266 104.939,191.086 103.871 C 191.020 103.481,190.736 102.123,190.454 100.852 C 190.172 99.581,189.712 97.342,189.432 95.875 C 189.152 94.409,188.722 92.248,188.476 91.072 C 187.944 88.527,187.715 88.829,190.358 88.591 C 194.323 88.233,196.647 88.274,196.483 88.699 M152.877 89.993 C 153.546 89.995,153.720 91.773,153.156 92.856 C 152.809 93.523,150.566 94.886,150.452 94.499 C 150.166 93.531,149.649 91.014,149.617 90.435 L 149.579 89.734 150.943 89.863 C 151.693 89.934,152.564 89.993,152.877 89.993 M166.822 90.124 C 167.506 90.301,168.626 90.573,169.311 90.729 C 172.892 91.544,178.762 93.355,181.752 94.567 C 181.980 94.660,182.494 94.842,182.893 94.973 C 183.292 95.103,183.898 95.385,184.241 95.600 C 184.583 95.814,185.169 96.146,185.543 96.337 C 187.055 97.108,187.482 97.729,187.413 99.055 L 187.351 100.256 186.032 101.118 C 181.458 104.106,172.362 104.974,164.541 103.169 C 163.401 102.906,162.052 102.629,161.545 102.555 C 161.037 102.480,160.524 102.344,160.404 102.252 C 160.285 102.161,159.720 101.965,159.150 101.816 C 158.580 101.668,157.646 101.341,157.076 101.089 C 156.506 100.838,155.946 100.595,155.832 100.549 C 154.233 99.912,151.372 97.188,151.374 96.304 C 151.375 96.198,151.989 95.739,152.741 95.283 C 154.424 94.261,154.665 93.821,154.710 91.685 L 154.746 90.003 159.333 89.943 C 161.855 89.910,164.292 89.865,164.749 89.843 C 165.205 89.820,166.138 89.947,166.822 90.124 " stroke="none" fill="#000000" fill-rule="evenodd"></path></g></svg>